<?xml version="1.0" standalone="no"?><!DOCTYPE svg PUBLIC "-//W3C//DTD SVG 1.1//EN" "http://www.w3.org/Graphics/SVG/1.1/DTD/svg11.dtd"><svg t="1754299043117" class="icon" viewBox="0 0 1024 1024" version="1.1" xmlns="http://www.w3.org/2000/svg" p-id="1716" xmlns:xlink="http://www.w3.org/1999/xlink" width="200" height="200"><path d="M511.96 512.2m-433.5 0a433.5 433.5 0 1 0 867 0 433.5 433.5 0 1 0-867 0Z" fill="#231815" p-id="1717"></path><path d="M441.73 704.57H404.8c-13.65 0-24.72-11.07-24.72-24.72V344.56c0-13.65 11.07-24.72 24.72-24.72h36.93c13.65 0 24.72 11.07 24.72 24.72v335.29c0 13.65-11.06 24.72-24.72 24.72zM619.12 704.57h-36.93c-13.65 0-24.72-11.07-24.72-24.72V344.56c0-13.65 11.07-24.72 24.72-24.72h36.93c13.65 0 24.72 11.07 24.72 24.72v335.29c0 13.65-11.07 24.72-24.72 24.72z" fill="#FFFFFF" p-id="1718"></path></svg>